<svg width="459" height="380" viewBox="0 0 459 380" fill="none" xmlns="http://www.w3.org/2000/svg">
<path d="M378.514 151.913C368.375 166.088 351.328 174.509 333.517 174.509C304.578 174.509 278.843 151.193 278.843 120.682C278.843 95.5139 291.888 77.4639 309.842 69.155C314.779 66.8807 319.995 65.3471 325.334 64.5986C328.048 64.2128 330.782 64.0199 333.517 64.0207C340.513 64.0207 347.441 65.4766 353.905 68.305C373.059 76.6593 386.997 96.3458 387.965 119.265C388.504 131.961 384.856 143.059 378.514 151.913Z" fill="#657285"/>
<path d="M303.378 124.115C303.378 124.115 305.423 129.101 303.378 131.841C301.339 134.58 301.155 139.762 305.239 143.184C309.317 146.606 311.076 146.901 310.149 150.323C309.221 153.745 308.253 157.927 309.78 159.686C311.308 161.447 311.935 165.628 315.345 165.935C318.754 166.244 315.072 163.074 317.295 160.139C319.525 157.205 328.144 156.62 327.312 150.825C326.48 145.031 334.41 144.517 335.522 140.702C336.64 136.888 331.908 134.543 327.939 134.835C323.964 135.128 326.405 128.601 322.095 127.646C317.779 126.692 315.761 123.027 313.258 123.467C310.756 123.907 307.973 120.165 305.116 121.34C302.266 122.515 303.378 124.115 303.378 124.115Z" fill="#B8C1C9"/>
<path d="M296.143 84.2132C296.143 84.2132 293.176 86.6573 292.351 90.5696C291.526 94.4811 287.34 96.9259 286.692 102.318C286.044 107.709 288.99 107.842 287.946 110.776C286.903 113.711 288.199 115.178 291.376 116.646C294.554 118.113 294.833 120.367 296.709 121.11C298.591 121.853 298.1 123.832 298.727 124.052C299.354 124.272 299.075 122.552 299.729 120.302C300.377 118.053 300.93 117.123 298.57 117.221C296.204 117.318 296.94 115.313 297.868 114.043C298.795 112.774 296.572 112.576 295.829 112.771C295.086 112.966 295.277 116.586 293.742 114.873C292.208 113.161 291.472 111.206 292.72 108.956C293.974 106.707 296.661 108.567 298.57 105.877C300.473 103.187 303.159 104.263 303.309 106.414C303.459 108.567 307.251 108.615 307.898 105.78C308.553 102.945 308.273 98.0033 312.167 97.1987C316.067 96.3933 323.725 92.2839 318.849 90.5969C313.981 88.9099 315.924 85.3877 313.422 85.5979C310.919 85.8073 311.894 89.7793 309.105 88.5969C306.323 87.4151 304.305 84.2701 308.205 83.3906C312.106 82.5104 313.701 77.9641 310.708 78.2563C307.714 78.5485 307.23 75.4689 305.423 75.8366C303.609 76.2044 301.734 80.8357 299.859 81.9958C297.977 83.1552 296.143 84.2132 296.143 84.2132Z" fill="#B8C1C9"/>
<path d="M321.236 75.1666C321.236 75.1666 325.089 74.0417 326.759 75.1666C328.43 76.2915 331.028 79.4689 328.846 80.6435C326.664 81.818 324.386 82.2081 325.457 84.4075C326.521 86.6076 322.395 87.3424 321.236 84.4075C320.077 81.4733 320.077 80.4081 318.87 79.0285C317.656 77.6488 318.174 74.7268 321.236 75.1666Z" fill="#B8C1C9"/>
<path d="M378.514 151.913C362.592 147.508 375.801 140.597 370.216 132.643C367.038 128.114 372.698 122.659 369.077 121.909C366.977 121.475 362.142 127.132 359.36 121.909C356.571 116.688 351.594 116.661 350.141 119.82C348.696 122.98 342.586 125.169 338.576 122.877C334.574 120.585 336.892 117.528 333.421 115.128C329.957 112.728 329.698 108.909 333.421 105.962C337.151 103.015 335.44 98.7583 341.031 100.068C346.623 101.378 345.539 87.7901 345.539 87.7901C345.45 85.4129 347.632 85.0056 346.391 82.7903C345.15 80.5758 341.652 82.3808 339.79 77.4689C337.929 72.557 342.743 69.6098 346.623 70.0899C347.755 70.2302 350.503 69.3953 353.912 68.3028C373.073 76.6564 387.011 96.3437 387.979 119.262C388.504 131.961 384.856 143.059 378.514 151.913Z" fill="#B8C1C9"/>
<path d="M304.516 112.891C304.516 112.891 307.728 111.004 309.433 112.504C311.144 114.004 311.881 115.003 314.397 114.435C316.92 113.868 318.631 114.936 317.008 115.721C315.385 116.505 311.553 117.865 309.808 116.235C308.055 114.606 303.009 113.549 304.516 112.891Z" fill="#B8C1C9"/>
<path d="M317.452 118.982C317.452 118.982 319.729 119.41 320.261 118.423C320.786 117.435 319.729 118.38 318.856 117.865C317.983 117.35 316.313 117.865 317.452 118.982Z" fill="#B8C1C9"/>
<path d="M235.353 318.261C334.444 318.261 414.777 309.736 414.777 299.221C414.777 288.706 334.444 280.182 235.353 280.182C136.26 280.182 55.9282 288.706 55.9282 299.221C55.9282 309.736 136.26 318.261 235.353 318.261Z" fill="#EAEAEA"/>
<g opacity="0.6">
<path d="M324.714 210.542C345.238 188.422 374.041 162.299 386.574 174.01C401.678 188.13 364.999 205.895 337.417 224.087C327.523 230.614 311.628 224.64 324.714 210.542Z" fill="#D5D6DA"/>
</g>
<path d="M299.348 219.738C299.348 219.738 404.119 176.994 417.948 211.159C431.777 245.324 339.592 221.345 309.596 234.931L299.348 219.738Z" fill="#B8C1C9"/>
<path d="M305.014 228.279C325.559 218.501 350.905 215.406 368.552 214.531C387.679 213.584 402.115 214.971 402.258 214.984L402.34 214.039C402.203 214.024 387.699 212.632 368.511 213.581C350.789 214.459 325.321 217.58 304.639 227.411L305.014 228.279Z" fill="white"/>
<path d="M371.341 290.12C358.194 283.916 347.455 303.483 336.865 290.105C327.919 278.784 327.741 277.007 321.638 277.394C319.545 277.537 317.486 277.994 315.515 278.749C313.149 279.639 309.153 280.549 305.403 278.589C282.498 266.618 276.811 213.491 310.135 212.464C312.542 212.389 315.113 213.628 317.847 215.131C332.74 223.287 332.399 232.981 354.498 224.537C376.598 216.093 374.287 250.971 383.833 257.077C393.373 263.184 403.253 266.481 403.253 281.891C403.253 297.301 384.488 296.334 371.341 290.12Z" fill="#D5D6DA"/>
<g opacity="0.5">
<path d="M300.555 240.485L300.589 239.485C301.004 239.502 343.029 241.825 402.878 285.978L402.333 286.796C342.715 242.809 300.964 240.502 300.555 240.485Z" fill="white"/>
<path d="M353.857 244.906C351.232 231.529 353.939 224.625 354.062 224.337L354.928 224.73C354.908 224.797 352.228 231.668 354.785 244.704L353.857 244.906Z" fill="white"/>
<path d="M349.146 254.63C349.793 248.881 354.069 243.211 361.515 238.212C365.02 235.882 368.743 233.92 372.609 232.356L372.93 233.296C372.718 233.375 351.573 241.545 350.087 254.75L349.146 254.63Z" fill="white"/>
<path d="M365.606 265.231C365.252 263.701 365.129 262.784 365.115 262.731L366.063 262.594C366.09 262.787 368.838 282.091 384.72 293.632L384.181 294.452C371.375 285.16 366.929 270.938 365.606 265.231Z" fill="white"/>
<path d="M360.254 289.76C359.619 282.841 361.515 277.892 363.213 274.957C365.068 271.763 367.052 270.227 367.134 270.163L367.686 270.98C367.611 271.038 360.022 277.007 361.188 289.67L360.254 289.76Z" fill="white"/>
</g>
<path d="M123.104 67.1132C123.104 67.1132 126.423 60.384 134.814 61.2261C143.205 62.0688 142.206 68.8153 146.194 68.1827C150.182 67.55 155.785 68.1827 156.984 72.3972C158.184 76.6118 163.578 74.2943 163.779 77.8763C163.981 81.4582 157.584 83.9908 150.189 80.8285C142.794 77.6661 139.2 83.2833 128.808 82.2657C118.416 81.248 117.129 79.9835 110.979 80.6162C104.829 81.248 104.976 76.8089 107.773 73.8668C110.571 70.9247 121.904 71.1874 123.104 67.1132Z" fill="#EAEAEA"/>
<g opacity="0.6">
<path d="M165.181 89.2568C165.181 89.2568 166.907 85.7576 171.274 86.1952C175.641 86.6328 175.122 90.1442 177.201 89.8146C179.281 89.4842 182.181 89.8146 182.815 92.0089C183.451 94.204 186.249 93.0093 186.353 94.8611C186.457 96.7136 183.128 98.0407 179.281 96.3962C175.433 94.751 173.56 97.6758 168.152 97.1461C162.743 96.6157 162.075 95.9586 158.874 96.2861C155.674 96.6136 155.747 94.304 157.215 92.7689C158.682 91.2345 164.557 91.3842 165.181 89.2568Z" fill="#EAEAEA"/>
</g>
<path d="M114.611 111.847C112.693 114.209 111.408 114.268 110.531 113.476C109.654 112.684 109.511 111.336 111.43 108.977C114.927 104.673 118.208 104.027 118.208 104.027C118.208 104.027 118.16 107.477 114.611 111.847Z" fill="#D5D6DA"/>
<path d="M120.721 130.953C119.628 133.846 118.433 134.338 117.359 133.888C116.285 133.438 115.738 132.211 116.828 129.321C118.815 124.054 121.722 122.322 121.722 122.322C121.722 122.322 122.737 125.609 120.721 130.953Z" fill="#D5D6DA"/>
<path d="M135.81 180.974L135.269 181.116C135.248 181.028 133.097 172.172 126.229 160.554C119.891 149.833 108.127 134.498 88.0566 122.31L88.3368 121.809C108.508 134.058 120.344 149.478 126.708 160.261C133.633 171.957 135.81 180.884 135.81 180.974Z" fill="#D5D6DA"/>
<path d="M109.687 138.634L109.144 138.495C113.924 117.71 100.936 99.298 100.803 99.1131L101.249 98.7582C101.381 98.9432 114.531 117.573 109.687 138.634Z" fill="#D5D6DA"/>
<path d="M98.7827 132.501C95.4271 133.669 91.8349 133.867 88.3819 133.073L88.5237 132.506C88.5878 132.523 94.9682 134.255 100.952 130.861L101.218 131.379C100.436 131.821 99.6221 132.197 98.7827 132.501Z" fill="#D5D6DA"/>
<path d="M130.831 168.745C119.557 171.385 108.942 168.995 99.2832 161.661C99.0486 161.471 98.8038 161.295 98.5508 161.134C98.5719 161.139 98.5938 161.139 98.6142 161.134V160.546C98.7806 160.546 98.9184 160.644 99.6152 161.176C109.141 168.426 119.605 170.765 130.715 168.175L130.831 168.745Z" fill="#D5D6DA"/>
<path d="M113.523 168.326L112.966 168.365C112.456 160.389 104.338 151.338 104.255 151.248L104.66 150.841C106.197 152.603 107.609 154.482 108.885 156.462C110.858 159.496 113.258 164.036 113.523 168.326Z" fill="#D5D6DA"/>
<path d="M86.7099 119.345C90.3709 120.988 91.0937 122.387 90.641 123.509C90.1882 124.632 88.7446 125.052 85.0693 123.409C78.3977 120.41 75.9934 116.938 75.9934 116.938C75.9934 116.938 79.9388 116.311 86.7099 119.345Z" fill="#D5D6DA"/>
<path d="M89.209 130.751C93.1708 131.153 94.259 132.251 94.1479 133.471C94.0361 134.691 92.7705 135.551 88.808 135.148C81.591 134.416 78.3029 131.864 78.3029 131.864C78.3029 131.864 81.8856 130.001 89.209 130.751Z" fill="#D5D6DA"/>
<path d="M105.246 148.866C107.38 151.015 107.363 152.366 106.564 153.253C105.765 154.14 104.483 154.207 102.349 152.058C98.4649 148.138 98.0339 144.649 98.0339 144.649C98.0339 144.649 101.303 144.889 105.246 148.866Z" fill="#D5D6DA"/>
<path d="M101.287 121.658C102.858 124.29 102.531 125.599 101.552 126.249C100.573 126.899 99.3138 126.644 97.7393 123.999C94.8754 119.203 95.2641 115.708 95.2641 115.708C95.2641 115.708 98.3796 116.79 101.287 121.658Z" fill="#D5D6DA"/>
<path d="M119.552 162.839C120.361 165.838 119.699 166.993 118.585 167.338C117.47 167.683 116.33 167.053 115.524 164.059C114.054 158.607 115.358 155.367 115.358 155.367C115.358 155.367 118.061 157.307 119.552 162.839Z" fill="#D5D6DA"/>
<path d="M101.505 160.302C104.025 161.922 104.288 163.246 103.686 164.289C103.084 165.331 101.846 165.694 99.3261 164.074C94.7336 161.121 93.6051 157.824 93.6051 157.824C93.6051 157.824 96.8482 157.31 101.505 160.302Z" fill="#D5D6DA"/>
<path d="M101.625 96.0983C103.76 99.6377 103.608 101.222 102.633 101.877C101.659 102.532 100.229 102.01 98.0933 98.4704C94.1977 92.0219 94.0811 87.7224 94.0811 87.7224C94.0811 87.7224 97.676 89.5569 101.625 96.0983Z" fill="#D5D6DA"/>
<path d="M178.723 257.9C178.723 257.9 121.854 159.094 97.005 176.369C72.155 193.644 149.023 233.676 164.713 262.992L178.723 257.9Z" fill="#D5D6DA"/>
<path d="M152.259 240.274C152.259 240.274 86.8073 167.081 64.3501 187.915C41.8922 208.75 120.873 225.969 139.129 247.959L152.259 240.274Z" fill="#EAEAEA"/>
<path d="M144.95 244.642C132.595 229.214 114.246 217.058 101.028 209.576C86.6983 201.468 75.1519 196.959 75.036 196.913L75.3013 196.163C75.4172 196.209 87.0133 200.738 101.381 208.875C114.659 216.388 133.095 228.602 145.526 244.119L144.95 244.642Z" fill="white"/>
<path d="M74.0425 268.69C88.7726 271.71 86.8046 295.166 103.428 290.452C120.05 285.738 118.644 284.631 126.833 292.105C126.833 292.105 130.112 299.431 136.792 300.513C163.108 304.78 198.144 263.096 170.336 241.177C168.327 239.595 165.439 239.032 162.246 238.577C144.919 236.12 139.705 244.599 125.671 223.447C111.638 202.295 93.7851 233.468 82.1842 232.643C70.5833 231.819 60.3004 228.394 51.5375 241.525C42.7746 254.655 59.309 265.683 74.0425 268.69Z" fill="#B8C1C9"/>
<path d="M162.568 271.108L163.101 270.233C162.737 269.983 125.603 245.417 49.5219 245.237V246.279C125.316 246.457 162.203 270.86 162.568 271.108Z" fill="white"/>
<path d="M114.632 241.207C124.469 231.459 126.084 223.87 126.148 223.552L125.18 223.335C125.167 223.41 123.543 230.956 113.955 240.447L114.632 241.207Z" fill="white"/>
<path d="M113.12 252.468C115.833 247.168 115.415 239.63 111.911 230.666C110.246 226.464 108.193 222.445 105.782 218.668L104.976 219.265C105.111 219.468 118.49 239.79 112.252 251.975L113.12 252.468Z" fill="white"/>
<path d="M93.0712 251.108C94.2427 250.028 94.8755 249.328 94.9041 249.296L94.1929 248.586C94.0599 248.734 80.7474 263.439 60.6584 263.251V264.291C76.828 264.443 88.7017 255.133 93.0712 251.108Z" fill="white"/>
<path d="M83.6946 275.385C88.1657 269.886 89.3658 264.479 89.584 260.904C89.8207 257.012 88.9983 254.447 88.9649 254.34L88.0307 254.68C88.0614 254.778 91.1346 264.653 82.9452 274.707L83.6946 275.385Z" fill="white"/>
<path d="M270.968 271.28V239.335H209.849V271.28C209.849 279.581 204.609 286.311 198.146 286.311H195.683V290.435H285.137V286.311H282.676C276.211 286.311 270.968 279.581 270.968 271.28Z" fill="#00A3FE"/>
<path d="M284.633 290.435H196.183C195.664 290.435 195.167 290.218 194.8 289.831C194.433 289.444 194.227 288.919 194.227 288.373C194.227 287.826 194.433 287.301 194.8 286.914C195.167 286.528 195.664 286.311 196.183 286.311H284.633C285.158 286.311 285.648 286.528 286.017 286.914C286.385 287.301 286.59 287.826 286.59 288.373C286.59 288.919 286.385 289.444 286.017 289.831C285.648 290.218 285.158 290.435 284.633 290.435Z" fill="#016EB9"/>
<path d="M344.516 258.947L137.837 256.447C135.711 256.421 133.68 255.512 132.185 253.918C130.691 252.324 129.852 250.172 129.851 247.931V114.936C129.852 112.7 130.686 110.554 132.175 108.961C133.662 107.368 135.686 106.456 137.806 106.422L341.822 103.128C343.957 103.093 346.016 103.952 347.557 105.516C349.091 107.079 349.978 109.221 350.018 111.471L352.685 250.258C352.705 251.399 352.514 252.533 352.112 253.592C351.71 254.652 351.109 255.616 350.346 256.426C349.582 257.236 348.675 257.878 347.673 258.31C346.677 258.743 345.6 258.96 344.516 258.947Z" fill="#016EB9"/>
<path d="M337.519 116.525H142.192C139.8 116.525 137.861 118.57 137.861 121.093V228.004C137.861 230.526 139.8 232.571 142.192 232.571H337.519C339.906 232.571 341.849 230.526 341.849 228.004V121.093C341.849 118.57 339.906 116.525 337.519 116.525Z" fill="#EAEAEA"/>
<path d="M261.162 80.2584L263.726 80.1857C263.965 80.1793 264.19 80.1246 264.408 80.0245C264.619 79.9238 264.81 79.7806 264.974 79.6014C265.131 79.4229 265.26 79.2127 265.342 78.9824C265.424 78.7528 265.465 78.5074 265.458 78.2613L265.376 74.9665C265.362 74.4699 265.165 73.9985 264.824 73.6559C264.476 73.3141 264.019 73.1291 263.549 73.1421L261.735 73.1946C261.353 73.2047 260.978 73.0852 260.664 72.8535C260.351 72.6225 260.119 72.2914 259.996 71.91C259.948 71.7595 259.9 71.6098 259.846 71.4623C259.723 71.1075 259.71 70.7225 259.798 70.3568C259.887 69.992 260.085 69.6645 260.351 69.4176L261.592 68.2726C261.946 67.9444 262.164 67.4817 262.198 66.9843C262.226 66.4878 262.069 65.9984 261.762 65.6234L259.703 63.1462C259.546 62.9605 259.362 62.8087 259.15 62.6993C258.939 62.5899 258.714 62.5251 258.482 62.5085C258.25 62.492 258.012 62.5244 257.794 62.6036C257.575 62.682 257.371 62.8065 257.193 62.9684L255.946 64.1135C255.68 64.3625 255.345 64.5194 254.991 64.564C254.636 64.6086 254.275 64.5388 253.961 64.3632C253.832 64.2905 253.695 64.2186 253.559 64.1509C253.218 63.9753 252.939 63.6874 252.761 63.3297C252.584 62.972 252.523 62.564 252.584 62.166L252.87 60.2739C252.945 59.7831 252.836 59.2807 252.557 58.8777C252.277 58.4746 251.861 58.2033 251.397 58.1242L248.315 57.5995C247.852 57.521 247.374 57.6405 246.992 57.932C246.611 58.2235 246.351 58.6632 246.276 59.154L245.867 61.8313C245.813 62.1825 245.663 62.51 245.438 62.7756C245.213 63.0411 244.92 63.2333 244.592 63.3312C244.026 63.5017 243.474 63.7148 242.935 63.9681C242.587 64.1358 242.192 64.1811 241.817 64.0969C241.442 64.0127 241.108 63.804 240.849 63.501L239.519 61.8961C239.362 61.7104 239.178 61.5586 238.967 61.4492C238.762 61.3398 238.53 61.275 238.298 61.2584C238.067 61.2419 237.835 61.2743 237.61 61.3534C237.391 61.4319 237.187 61.5564 237.01 61.719L234.657 63.8882C234.303 64.2164 234.084 64.6792 234.057 65.1757C234.023 65.6723 234.18 66.161 234.493 66.5353L236.28 68.6951C236.512 68.9635 236.655 69.2946 236.71 69.6487C236.764 70.0035 236.716 70.3662 236.58 70.6951C236.512 70.8549 236.45 71.0175 236.389 71.1795C236.26 71.5192 236.035 71.8114 235.755 72.0201C235.469 72.2281 235.134 72.3439 234.787 72.3518L231.882 72.4325C231.411 72.4461 230.968 72.6563 230.641 73.0183C230.314 73.3796 230.143 73.8618 230.157 74.3591L230.239 77.6539C230.252 78.1512 230.45 78.6218 230.791 78.9644C231.132 79.3063 231.589 79.4912 232.059 79.4783L234.555 79.4085C234.93 79.3984 235.291 79.5121 235.605 79.7331C235.912 79.954 236.144 80.2721 236.273 80.6406V80.6658C236.396 81.0213 236.416 81.4078 236.328 81.7748C236.239 82.1419 236.048 82.4715 235.775 82.7205L234.016 84.3456C233.839 84.5075 233.696 84.7054 233.593 84.9264C233.484 85.1473 233.423 85.3877 233.409 85.6338C233.396 85.88 233.423 86.1268 233.498 86.36C233.573 86.5939 233.696 86.8098 233.846 86.9948L235.905 89.4749C236.062 89.6598 236.246 89.8117 236.457 89.9211C236.669 90.0298 236.894 90.0945 237.132 90.1111C237.364 90.1269 237.596 90.0945 237.814 90.0154C238.039 89.9362 238.244 89.8117 238.421 89.6498L240.18 88.0247C240.446 87.7742 240.78 87.6166 241.142 87.572C241.496 87.5274 241.858 87.5979 242.178 87.775L242.199 87.7901C242.533 87.9721 242.799 88.2586 242.962 88.6098C243.133 88.961 243.194 89.359 243.133 89.7469L242.737 92.3393C242.703 92.5825 242.71 92.8315 242.765 93.0712C242.819 93.3116 242.915 93.5383 243.051 93.7376C243.188 93.9377 243.365 94.1076 243.563 94.2364C243.76 94.3659 243.985 94.4523 244.21 94.4912L247.292 95.0137C247.763 95.0921 248.24 94.9726 248.622 94.6812C249.004 94.3897 249.256 93.9499 249.338 93.4591L249.795 90.4393C249.849 90.0787 250 89.7419 250.238 89.472C250.47 89.2014 250.77 89.01 251.111 88.92C251.268 88.8775 251.431 88.8322 251.581 88.7825C251.909 88.6832 252.257 88.6854 252.577 88.7869C252.904 88.889 253.191 89.087 253.416 89.3568L255.209 91.5167C255.359 91.7023 255.55 91.8542 255.755 91.9629C255.966 92.0723 256.198 92.137 256.43 92.1529C256.662 92.1694 256.893 92.137 257.118 92.0579C257.337 91.9787 257.541 91.8542 257.718 91.6915L260.071 89.5224C260.248 89.3597 260.391 89.1625 260.494 88.9416C260.603 88.7206 260.657 88.481 260.678 88.2348C260.692 87.9887 260.664 87.7426 260.582 87.5087C260.507 87.2755 260.391 87.0603 260.241 86.8746L258.905 85.2675C258.653 84.9631 258.503 84.5809 258.475 84.1779C258.441 83.7749 258.537 83.3733 258.741 83.0307C259.048 82.5053 259.321 81.9584 259.553 81.3934C259.689 81.0616 259.914 80.7781 260.201 80.5765C260.487 80.3757 260.821 80.2649 261.162 80.2584ZM252.679 81.7957C249.952 84.3175 244.367 83.6007 241.974 80.7212C239.587 77.841 240.542 72.9722 243.269 70.4727C246.004 67.9725 250.661 69.3025 253.048 72.182C255.441 75.0615 255.414 79.2739 252.679 81.7935V81.7957Z" fill="#00A3FE"/>
<path d="M247.872 97.1058C247.777 97.1065 247.674 97.0979 247.579 97.0806L244.497 96.5581C244.258 96.5193 244.033 96.43 243.829 96.2976C243.624 96.1645 243.44 95.9903 243.303 95.7845C243.16 95.5786 243.058 95.3454 243.003 95.0979C242.949 94.851 242.942 94.5948 242.976 94.3436L243.372 91.752C243.433 91.3749 243.378 90.9884 243.215 90.6473C243.051 90.3061 242.792 90.0269 242.472 89.8491H242.444C242.137 89.68 241.79 89.6131 241.442 89.6577C241.094 89.7023 240.767 89.8563 240.508 90.0996L238.748 91.7239C238.564 91.8916 238.36 92.0197 238.128 92.101C237.903 92.1824 237.657 92.2155 237.419 92.1989C237.18 92.1824 236.941 92.1162 236.73 92.0039C236.512 91.8909 236.321 91.7354 236.164 91.544L234.105 89.0618C233.941 88.871 233.818 88.6494 233.743 88.409C233.668 88.1679 233.634 87.9139 233.648 87.6605C233.668 87.4072 233.73 87.1596 233.839 86.9322C233.941 86.7048 234.091 86.5018 234.275 86.3348L236.035 84.7105C236.294 84.4658 236.485 84.1441 236.566 83.7878C236.648 83.4309 236.635 83.0552 236.512 82.7104V82.6853C236.389 82.3283 236.164 82.0203 235.864 81.8058C235.564 81.5913 235.209 81.4812 234.848 81.4906L232.359 81.5604C231.875 81.5733 231.405 81.3826 231.05 81.0292C230.695 80.6766 230.491 80.1908 230.477 79.6784L230.395 76.3836C230.382 75.8719 230.566 75.376 230.9 75.0046C231.234 74.6326 231.691 74.4159 232.182 74.4015L235.08 74.3195C235.414 74.3123 235.741 74.2007 236.014 73.9985C236.294 73.797 236.505 73.5134 236.635 73.1845C236.696 73.0197 236.757 72.8571 236.826 72.6973C236.955 72.3792 237.003 72.0287 236.948 71.6868C236.901 71.3443 236.757 71.0247 236.539 70.7649L234.746 68.6051C234.425 68.2193 234.262 67.7156 234.296 67.2046C234.33 66.6929 234.555 66.2157 234.916 65.8782L237.269 63.7083C237.446 63.5406 237.657 63.4125 237.889 63.3312C238.114 63.2498 238.353 63.2167 238.598 63.2333C238.837 63.2506 239.069 63.3175 239.287 63.4298C239.505 63.5428 239.696 63.6996 239.853 63.8911L241.183 65.4953C241.428 65.7904 241.762 65.994 242.124 66.0754C242.492 66.1574 242.867 66.1121 243.208 65.948C243.747 65.6946 244.299 65.4802 244.865 65.3082C245.185 65.2125 245.465 65.0246 245.683 64.7662C245.908 64.5079 246.051 64.1898 246.106 63.8486L246.515 61.1714C246.59 60.6654 246.856 60.2127 247.252 59.9126C247.64 59.6125 248.131 59.4901 248.615 59.5715L251.697 60.094C252.175 60.176 252.604 60.456 252.891 60.8712C253.177 61.2872 253.293 61.8047 253.218 62.3114L252.925 64.2006C252.864 64.587 252.925 64.9836 253.095 65.3312C253.266 65.6788 253.539 65.9581 253.873 66.1279C254.009 66.1956 254.145 66.2682 254.275 66.3402C254.582 66.5086 254.93 66.5748 255.277 66.5302C255.618 66.4856 255.946 66.3323 256.205 66.0905L257.446 64.9454C257.814 64.6086 258.291 64.4388 258.775 64.4726C259.26 64.5071 259.71 64.7425 260.03 65.1282L262.089 67.6054C262.246 67.7962 262.369 68.0178 262.451 68.2582C262.526 68.4986 262.56 68.7526 262.539 69.006C262.526 69.2593 262.464 69.5069 262.355 69.7343C262.246 69.9617 262.103 70.1654 261.919 70.3324L260.678 71.4796C260.419 71.7192 260.228 72.0373 260.139 72.3907C260.057 72.7448 260.071 73.1183 260.187 73.4616C260.241 73.612 260.289 73.7617 260.337 73.9114C260.453 74.2842 260.678 74.6074 260.985 74.8326C261.285 75.0579 261.653 75.1738 262.021 75.1615L263.842 75.109C264.326 75.096 264.796 75.2868 265.151 75.6394C265.499 75.9913 265.703 76.4771 265.717 76.9888L265.806 80.2836C265.819 80.7953 265.635 81.2912 265.301 81.6626C264.967 82.0346 264.51 82.2513 264.026 82.2657L261.455 82.3405C261.121 82.3513 260.807 82.4607 260.535 82.655C260.262 82.8501 260.044 83.1221 259.914 83.4402C259.676 84.0095 259.403 84.5601 259.096 85.0876C258.898 85.4194 258.803 85.8095 258.837 86.2002C258.864 86.591 259.007 86.9617 259.253 87.2575L260.589 88.8646C260.746 89.0553 260.869 89.2777 260.944 89.5181C261.019 89.7584 261.053 90.0125 261.039 90.2651C261.019 90.5184 260.957 90.766 260.855 90.9934C260.746 91.2216 260.596 91.4245 260.419 91.5915L258.053 93.7564C257.875 93.924 257.664 94.0522 257.432 94.1335C257.207 94.2148 256.968 94.2479 256.723 94.2314C256.484 94.2141 256.252 94.1471 256.034 94.0349C255.816 93.9219 255.625 93.765 255.468 93.5736L253.675 91.4145C253.464 91.1532 253.177 90.9618 252.863 90.8632C252.55 90.7646 252.216 90.7624 251.895 90.8567C251.738 90.9071 251.575 90.9546 251.425 90.997C251.097 91.0834 250.804 91.2691 250.579 91.531C250.347 91.793 250.204 92.119 250.15 92.4688L249.693 95.4887C249.618 95.9421 249.4 96.3537 249.065 96.6503C248.731 96.946 248.308 97.108 247.872 97.1058ZM241.646 89.5073C241.94 89.5065 242.233 89.5821 242.492 89.7268L242.519 89.7397C242.853 89.9297 243.126 90.2262 243.297 90.589C243.467 90.951 243.528 91.3605 243.467 91.7592L243.072 94.3515C242.997 94.8265 243.106 95.3131 243.372 95.7046C243.638 96.0954 244.04 96.3595 244.49 96.4387L247.572 96.9583C248.022 97.0346 248.486 96.9201 248.854 96.6387C249.229 96.3581 249.474 95.9334 249.549 95.4584L250.013 92.4393C250.068 92.0665 250.225 91.7203 250.463 91.4418C250.702 91.1633 251.016 90.9661 251.363 90.874C251.52 90.8315 251.684 90.7869 251.841 90.7365C252.175 90.6343 252.536 90.6357 252.87 90.7408C253.204 90.8452 253.504 91.0496 253.736 91.3295L255.53 93.4886C255.68 93.6685 255.857 93.8161 256.062 93.9219C256.266 94.0277 256.484 94.0903 256.709 94.1061C256.941 94.122 257.166 94.091 257.378 94.014C257.596 93.937 257.794 93.8168 257.964 93.6592L260.316 91.4893C260.657 91.1719 260.869 90.7228 260.903 90.2414C260.93 89.7599 260.78 89.2856 260.48 88.9221L259.144 87.3151C258.885 87.0013 258.728 86.6076 258.694 86.1923C258.666 85.7771 258.762 85.3625 258.973 85.0099C259.28 84.4867 259.553 83.9411 259.785 83.3776C259.928 83.0401 260.153 82.7515 260.439 82.5442C260.732 82.3376 261.073 82.2218 261.421 82.2103L263.985 82.1354C264.442 82.1217 264.878 81.9173 265.192 81.5676C265.506 81.2178 265.676 80.7507 265.662 80.2685L265.581 76.9766C265.567 76.4937 265.376 76.036 265.042 75.7042C264.715 75.3717 264.271 75.1918 263.815 75.204L261.994 75.2565C261.598 75.2681 261.217 75.1457 260.889 74.9075C260.569 74.6693 260.33 74.3281 260.207 73.9345C260.16 73.784 260.112 73.6365 260.057 73.4897C259.935 73.1241 259.914 72.7275 260.01 72.3511C260.098 71.9747 260.296 71.6372 260.576 71.3824L261.817 70.2374C261.987 70.0798 262.13 69.8883 262.226 69.6738C262.328 69.4594 262.389 69.2262 262.403 68.988C262.417 68.749 262.389 68.5094 262.314 68.2834C262.246 68.0567 262.13 67.8473 261.98 67.6681L259.921 65.188C259.621 64.8267 259.191 64.6057 258.734 64.5734C258.278 64.5417 257.828 64.7015 257.487 65.0181L256.246 66.1632C255.966 66.4194 255.625 66.5813 255.257 66.6281C254.895 66.6749 254.52 66.6043 254.193 66.4251C254.064 66.3532 253.934 66.2805 253.798 66.2128C253.443 66.0329 253.15 65.7364 252.973 65.3679C252.788 64.9994 252.727 64.5784 252.788 64.1682L253.082 62.2782C253.15 61.8032 253.041 61.316 252.775 60.9252C252.509 60.5337 252.107 60.2696 251.657 60.1911L248.574 59.6665C248.124 59.5909 247.661 59.7053 247.292 59.9867C246.924 60.2674 246.672 60.6913 246.597 61.1663L246.188 63.8436C246.126 64.2063 245.976 64.5446 245.745 64.8195C245.513 65.0937 245.206 65.2938 244.872 65.3953C244.313 65.5658 243.76 65.7781 243.228 66.0307C242.867 66.2035 242.465 66.2503 242.083 66.1624C241.694 66.0754 241.346 65.8587 241.08 65.5457L239.751 63.9407C239.601 63.7608 239.424 63.614 239.219 63.5075C239.014 63.4017 238.796 63.3391 238.564 63.3232C238.339 63.3074 238.114 63.3391 237.903 63.4154C237.685 63.4924 237.487 63.6133 237.317 63.7709L234.964 65.9408C234.623 66.2582 234.412 66.7073 234.384 67.1887C234.35 67.6695 234.5 68.1438 234.8 68.5079L236.594 70.667C236.826 70.9434 236.976 71.2824 237.03 71.6458C237.085 72.0093 237.044 72.3821 236.901 72.7196C236.839 72.8772 236.771 73.0392 236.71 73.2018C236.58 73.5537 236.348 73.856 236.055 74.0705C235.755 74.2857 235.407 74.4037 235.053 74.4095L232.148 74.4915C231.923 74.498 231.698 74.5512 231.493 74.6484C231.289 74.7456 231.098 74.8845 230.941 75.0579C230.791 75.2314 230.668 75.4357 230.586 75.6589C230.504 75.882 230.464 76.1202 230.47 76.3591L230.552 79.6532C230.566 80.1361 230.764 80.5938 231.091 80.9256C231.425 81.2581 231.868 81.438 232.325 81.4258L234.821 81.356C235.203 81.3445 235.578 81.461 235.898 81.6885C236.212 81.9159 236.457 82.2426 236.587 82.6234V82.6428C236.716 83.0098 236.737 83.4093 236.641 83.7878C236.553 84.1664 236.355 84.5075 236.075 84.7652L234.309 86.3903C234.139 86.5471 234.003 86.7386 233.9 86.9531C233.798 87.1675 233.743 87.4007 233.73 87.6396C233.709 87.8779 233.743 88.1175 233.812 88.3442C233.887 88.5709 234.003 88.7796 234.153 88.9596L236.212 91.4389C236.362 91.6196 236.539 91.7664 236.744 91.8722C236.948 91.9787 237.173 92.0413 237.398 92.0571C237.623 92.073 237.848 92.0413 238.067 91.9643C238.278 91.8873 238.476 91.7671 238.646 91.6095L240.405 89.9844C240.746 89.6699 241.19 89.4993 241.646 89.5073Z" fill="#131F2D"/>
<g opacity="0.6">
<path d="M322.995 130.286H156.489C154.108 130.286 152.178 132.321 152.178 134.83V164.686C152.178 167.196 154.108 169.23 156.489 169.23H322.995C325.375 169.23 327.305 167.196 327.305 164.686V134.83C327.305 132.321 325.375 130.286 322.995 130.286Z" fill="#D5D6DA"/>
</g>
<g opacity="0.6">
<path d="M324.686 181.116H244.285C244.122 181.116 243.958 181.082 243.808 181.016C243.658 180.95 243.522 180.853 243.406 180.731C243.29 180.609 243.194 180.463 243.133 180.304C243.072 180.144 243.037 179.974 243.037 179.801V179.026C243.037 178.853 243.072 178.681 243.133 178.521C243.201 178.36 243.29 178.215 243.406 178.093C243.528 177.971 243.665 177.874 243.815 177.808C243.972 177.743 244.129 177.71 244.299 177.711L324.7 178.493C325.027 178.497 325.341 178.637 325.573 178.882C325.805 179.128 325.934 179.46 325.934 179.806C325.934 180.154 325.805 180.487 325.566 180.732C325.334 180.978 325.021 181.116 324.686 181.116Z" fill="#D5D6DA"/>
</g>
<path d="M318.672 148.228H264.721V146.071L318.672 146.576V148.228Z" fill="#657285"/>
<path d="M288.819 153.082H264.721V150.925L288.819 151.433V153.082Z" fill="#00A3FE"/>
<path d="M296.641 163.586H264.721V161.427L296.641 161.934V163.586Z" fill="#00A3FE"/>
<path d="M288.819 158.717H264.721V156.559L288.819 157.067V158.717Z" fill="#5C305D"/>
<path d="M306.391 158.717H292.27V156.559L306.391 157.067V158.717Z" fill="#657285"/>
<path d="M316.361 153.082H292.27V150.925L316.361 151.433V153.082Z" fill="#00A3FE"/>
<g opacity="0.6">
<path d="M324.809 188.672L244.197 189.673C244.047 189.674 243.897 189.644 243.753 189.585C243.617 189.526 243.488 189.437 243.385 189.326C243.276 189.213 243.188 189.08 243.133 188.933C243.072 188.787 243.044 188.629 243.044 188.47V187.47C243.044 187.152 243.167 186.847 243.378 186.622C243.59 186.396 243.883 186.271 244.183 186.271H324.795C325.096 186.271 325.389 186.396 325.6 186.622C325.812 186.846 325.934 187.151 325.934 187.47C325.934 187.786 325.818 188.09 325.607 188.315C325.396 188.54 325.109 188.669 324.809 188.672Z" fill="#D5D6DA"/>
</g>
<g opacity="0.6">
<path d="M196.899 215.076H152.781V212.306L196.181 212.936C196.545 212.942 196.892 213.098 197.147 213.371C197.402 213.644 197.545 214.013 197.544 214.396C197.544 214.576 197.476 214.75 197.355 214.877C197.234 215.004 197.07 215.076 196.899 215.076Z" fill="#D5D6DA"/>
</g>
<g opacity="0.6">
<path d="M210.689 221.842L153.507 222.648C153.412 222.649 153.318 222.632 153.23 222.594C153.142 222.558 153.062 222.503 152.994 222.433C152.926 222.363 152.873 222.28 152.836 222.188C152.8 222.096 152.781 221.997 152.781 221.898V220.673C152.781 220.474 152.856 220.283 152.989 220.142C153.123 220.002 153.303 219.923 153.492 219.923H210.675C210.863 219.923 211.044 220.002 211.177 220.142C211.311 220.283 211.386 220.474 211.386 220.673V221.092C211.386 221.289 211.313 221.477 211.183 221.618C211.052 221.758 210.875 221.839 210.689 221.842Z" fill="#D5D6DA"/>
</g>
<g opacity="0.6">
<path d="M256.252 221.85L216.248 222.64C216.126 222.642 216.005 222.619 215.891 222.571C215.778 222.523 215.674 222.453 215.587 222.362C215.5 222.272 215.431 222.164 215.384 222.045C215.336 221.927 215.312 221.799 215.312 221.67V220.883C215.312 220.625 215.409 220.378 215.581 220.197C215.754 220.015 215.988 219.913 216.232 219.913H256.252C256.498 219.914 256.73 220.016 256.9 220.198C257.071 220.38 257.173 220.626 257.173 220.883C257.173 221.139 257.071 221.385 256.9 221.567C256.73 221.748 256.498 221.85 256.252 221.85Z" fill="#D5D6DA"/>
</g>
<g opacity="0.6">
<path d="M324.809 199.613L244.197 200.613C244.047 200.615 243.897 200.585 243.753 200.526C243.617 200.467 243.488 200.378 243.385 200.266C243.276 200.154 243.188 200.021 243.133 199.874C243.072 199.727 243.044 199.57 243.044 199.411V198.411C243.044 198.093 243.167 197.788 243.378 197.563C243.59 197.337 243.883 197.211 244.183 197.211H324.795C325.096 197.211 325.389 197.337 325.6 197.563C325.812 197.787 325.934 198.092 325.934 198.411C325.934 198.727 325.818 199.031 325.607 199.256C325.396 199.481 325.109 199.609 324.809 199.613Z" fill="#D5D6DA"/>
</g>
<g opacity="0.6">
<path d="M230.941 174.547H201.238C199.455 174.547 198.011 176.07 198.011 177.949V200.783C198.011 202.662 199.455 204.185 201.238 204.185H230.941C232.721 204.185 234.166 202.662 234.166 200.783V177.949C234.166 176.07 232.721 174.547 230.941 174.547Z" fill="#D5D6DA"/>
</g>
<path d="M189.91 220.653C189.694 232.993 188.849 249.886 186.189 264.699C181.759 289.415 154.474 306.372 149.44 309.314C149.194 309.457 148.92 309.538 148.64 309.55C148.36 309.56 148.081 309.503 147.826 309.38C105.149 288.71 105.815 257.3 105.815 257.3V220.408C105.815 219.91 106 219.431 106.332 219.077C106.663 218.722 107.114 218.519 107.586 218.511C114.085 218.398 136.749 217.108 146.654 204.842C146.816 204.644 147.015 204.484 147.239 204.372C147.462 204.259 147.706 204.196 147.954 204.188C148.202 204.179 148.448 204.225 148.678 204.323C148.909 204.42 149.117 204.566 149.291 204.752C153.558 209.325 167.471 222 189.833 220.658L189.91 220.653Z" fill="#00A3FE"/>
<path d="M148.537 303.308C148.509 303.307 148.482 303.301 148.456 303.29C139.755 299.156 132.367 294.167 126.492 288.452C121.79 283.881 118.045 278.836 115.348 273.455C110.768 264.296 110.863 257.25 110.863 257.179V226.259C110.857 225.416 111.166 224.603 111.721 223.996C112.277 223.388 113.036 223.035 113.836 223.01C117.027 222.894 123.345 222.45 129.78 220.74C137.457 218.7 143.117 215.491 146.614 211.207C146.777 211.004 146.978 210.84 147.205 210.724C147.432 210.608 147.679 210.544 147.932 210.534C148.183 210.526 148.434 210.573 148.668 210.672C148.901 210.771 149.113 210.921 149.289 211.112C151.659 213.681 158.035 219.925 166.2 222.387C171.275 223.881 176.498 224.746 181.763 224.964C182.544 224.999 183.28 225.354 183.816 225.955C184.35 226.556 184.641 227.353 184.624 228.176C184.284 242.594 183.292 254.213 181.59 263.696C180.608 269.163 178.271 274.649 174.619 279.999C171.705 284.271 167.962 288.467 163.49 292.472C158.894 296.591 153.915 300.21 148.629 303.275C148.601 303.294 148.57 303.305 148.537 303.308ZM147.994 210.954H147.947C147.748 210.961 147.553 211.012 147.374 211.102C147.195 211.192 147.036 211.32 146.905 211.479C143.368 215.833 137.643 219.085 129.885 221.145C123.414 222.865 117.067 223.312 113.857 223.427C113.16 223.449 112.499 223.757 112.015 224.286C111.53 224.815 111.26 225.522 111.263 226.257V257.192C111.263 257.267 111.171 264.226 115.714 273.297C118.381 278.624 122.101 283.626 126.772 288.162C132.593 293.819 139.911 298.768 148.53 302.871C153.76 299.826 158.69 296.239 163.244 292.162C170.224 285.913 179.008 275.882 181.206 263.626C182.903 254.167 183.892 242.57 184.234 228.174C184.245 227.459 183.992 226.768 183.527 226.246C183.063 225.725 182.424 225.415 181.746 225.382C176.453 225.161 171.202 224.291 166.098 222.79C157.843 220.29 151.398 213.998 149.014 211.404C148.881 211.26 148.723 211.146 148.547 211.068C148.372 210.991 148.184 210.953 147.994 210.954Z" fill="#131F2D"/>
<path d="M157.686 272.42H130.679C129.477 272.419 128.325 271.914 127.475 271.018C126.625 270.122 126.147 268.908 126.146 267.641V250.073C126.147 248.806 126.624 247.59 127.474 246.693C128.324 245.797 129.476 245.293 130.679 245.291H132.201C132.852 242.459 134.388 239.94 136.561 238.138C138.734 236.336 141.418 235.357 144.183 235.357C146.947 235.357 149.632 236.336 151.804 238.138C153.977 239.94 155.513 242.459 156.164 245.291H157.686C158.889 245.293 160.042 245.797 160.892 246.693C161.742 247.59 162.22 248.806 162.222 250.073V267.641C162.22 268.908 161.741 270.123 160.891 271.019C160.041 271.914 158.888 272.419 157.686 272.42ZM130.679 245.702C129.58 245.703 128.527 246.164 127.75 246.984C126.972 247.804 126.536 248.914 126.535 250.073V267.641C126.536 268.799 126.973 269.909 127.75 270.729C128.527 271.548 129.58 272.009 130.679 272.01H157.686C158.785 272.009 159.839 271.548 160.616 270.729C161.393 269.91 161.831 268.8 161.833 267.641V250.073C161.832 248.914 161.395 247.803 160.617 246.983C159.839 246.164 158.786 245.702 157.686 245.702H156.01C155.966 245.702 155.923 245.686 155.889 245.658C155.854 245.629 155.831 245.589 155.82 245.544C155.214 242.768 153.733 240.292 151.619 238.518C149.505 236.745 146.884 235.779 144.183 235.779C141.481 235.779 138.86 236.745 136.746 238.518C134.632 240.292 133.151 242.768 132.545 245.544C132.535 245.589 132.511 245.63 132.477 245.658C132.442 245.687 132.399 245.702 132.355 245.702H130.679ZM152.909 245.702H135.459C135.429 245.702 135.399 245.694 135.371 245.68C135.344 245.666 135.32 245.645 135.302 245.619C135.284 245.593 135.272 245.563 135.266 245.532C135.261 245.5 135.263 245.467 135.272 245.436C135.864 243.433 137.048 241.682 138.651 240.439C140.254 239.196 142.192 238.525 144.183 238.525C146.173 238.525 148.111 239.196 149.714 240.439C151.317 241.682 152.502 243.433 153.093 245.436C153.103 245.467 153.106 245.499 153.101 245.531C153.095 245.563 153.084 245.593 153.065 245.619C153.048 245.645 153.024 245.666 152.997 245.68C152.969 245.694 152.939 245.702 152.909 245.702ZM135.727 245.291H152.643C152.037 243.435 150.896 241.825 149.381 240.685C147.865 239.545 146.05 238.932 144.187 238.932C142.325 238.932 140.51 239.545 138.994 240.685C137.478 241.825 136.337 243.435 135.731 245.291H135.727Z" fill="#131F2D"/>
<path d="M160.316 242.717H134.873C132.303 242.717 130.219 244.914 130.219 247.623V264.529C130.219 267.239 132.303 269.435 134.873 269.435H160.316C162.886 269.435 164.97 267.239 164.97 264.529V247.623C164.97 244.914 162.886 242.717 160.316 242.717Z" fill="#131F2D"/>
<path d="M147.595 258.38C145.194 258.38 142.847 257.63 140.851 256.224C138.854 254.817 137.298 252.819 136.378 250.48C135.459 248.141 135.219 245.568 135.687 243.086C136.155 240.603 137.312 238.322 139.01 236.532C140.708 234.742 142.871 233.523 145.226 233.029C147.58 232.536 150.022 232.789 152.24 233.758C154.458 234.727 156.354 236.368 157.687 238.473C159.021 240.577 159.733 243.052 159.732 245.584C159.729 248.976 158.449 252.229 156.173 254.627C153.898 257.026 150.813 258.376 147.595 258.38ZM147.595 235.948C145.788 235.948 144.02 236.512 142.517 237.571C141.014 238.629 139.842 240.134 139.15 241.894C138.457 243.656 138.276 245.593 138.629 247.462C138.981 249.332 139.851 251.049 141.13 252.397C142.408 253.745 144.036 254.663 145.81 255.035C147.582 255.407 149.42 255.216 151.091 254.487C152.761 253.757 154.189 252.522 155.193 250.937C156.197 249.353 156.733 247.49 156.733 245.584C156.731 243.029 155.767 240.58 154.054 238.774C152.341 236.967 150.019 235.951 147.595 235.948Z" fill="#131F2D"/>
<path d="M147.595 257.12C147.26 257.119 146.939 256.978 146.701 256.728C146.464 256.478 146.331 256.139 146.33 255.785V249.313C146.331 248.96 146.464 248.621 146.701 248.37C146.939 248.12 147.26 247.98 147.595 247.979C147.931 247.98 148.252 248.121 148.489 248.371C148.725 248.621 148.859 248.96 148.86 249.313V255.785C148.859 256.138 148.725 256.477 148.489 256.727C148.252 256.977 147.931 257.118 147.595 257.12Z" fill="#00A3FE"/>
<path d="M147.595 262.987C149.48 262.987 151.008 261.376 151.008 259.39C151.008 257.403 149.48 255.793 147.595 255.793C145.711 255.793 144.184 257.403 144.184 259.39C144.184 261.376 145.711 262.987 147.595 262.987Z" fill="#00A3FE"/>
<path d="M209.648 165.746C209.573 165.746 209.499 165.727 209.432 165.691L204.567 163.127C204.51 163.097 204.458 163.056 204.416 163.006C204.374 162.956 204.342 162.897 204.321 162.834C204.302 162.77 204.293 162.703 204.299 162.636C204.304 162.569 204.321 162.503 204.351 162.444C204.379 162.383 204.418 162.329 204.465 162.284C204.513 162.241 204.568 162.207 204.629 162.185C204.689 162.164 204.753 162.156 204.816 162.161C204.88 162.166 204.942 162.185 204.999 162.216L209.871 164.776C209.978 164.819 210.067 164.902 210.122 165.009C210.175 165.116 210.19 165.24 210.164 165.358C210.138 165.476 210.072 165.58 209.978 165.65C209.884 165.721 209.769 165.753 209.655 165.74L209.648 165.746Z" fill="#131F2D"/>
<path d="M202.734 171.902C202.606 171.907 202.482 171.857 202.388 171.765C202.295 171.673 202.24 171.545 202.236 171.41C202.232 171.275 202.279 171.144 202.366 171.045C202.454 170.947 202.575 170.889 202.703 170.885L208.109 170.5C208.237 170.491 208.362 170.535 208.459 170.624C208.555 170.713 208.615 170.838 208.623 170.973C208.632 171.107 208.59 171.24 208.506 171.342C208.422 171.443 208.303 171.506 208.175 171.515L202.767 171.9L202.734 171.902Z" fill="#131F2D"/>
<path d="M205.792 180.446C205.683 180.453 205.575 180.419 205.487 180.352C205.398 180.284 205.335 180.186 205.307 180.075C205.279 179.963 205.288 179.845 205.334 179.74C205.379 179.635 205.457 179.55 205.556 179.499L210.257 176.587C210.312 176.553 210.372 176.531 210.435 176.522C210.497 176.512 210.561 176.516 210.622 176.533C210.683 176.55 210.741 176.579 210.791 176.619C210.842 176.659 210.884 176.709 210.916 176.767C210.948 176.824 210.969 176.888 210.978 176.953C210.987 177.02 210.983 177.087 210.967 177.151C210.951 177.216 210.923 177.276 210.886 177.33C210.848 177.383 210.8 177.428 210.745 177.461L206.046 180.373C205.97 180.422 205.882 180.447 205.792 180.446Z" fill="#131F2D"/>
<path d="M225.462 165.745C225.372 165.747 225.284 165.72 225.207 165.671C225.131 165.62 225.069 165.549 225.03 165.463C225.001 165.404 224.983 165.339 224.978 165.272C224.973 165.205 224.98 165.137 225.001 165.074C225.021 165.01 225.053 164.952 225.095 164.901C225.137 164.851 225.188 164.81 225.246 164.781L230.116 162.221C230.177 162.192 230.239 162.174 230.3 162.169C230.361 162.165 230.429 162.174 230.484 162.195C230.545 162.216 230.6 162.249 230.648 162.293C230.695 162.337 230.736 162.39 230.764 162.45C230.791 162.51 230.811 162.574 230.811 162.641C230.818 162.708 230.811 162.775 230.791 162.838C230.77 162.901 230.736 162.96 230.695 163.01C230.654 163.06 230.607 163.101 230.545 163.131L225.668 165.686C225.604 165.722 225.534 165.743 225.462 165.745Z" fill="#131F2D"/>
<path d="M232.373 171.902H232.339L226.934 171.517C226.807 171.508 226.687 171.445 226.603 171.344C226.519 171.243 226.477 171.109 226.486 170.975C226.495 170.84 226.554 170.715 226.65 170.626C226.747 170.538 226.873 170.493 227 170.503L232.407 170.888C232.536 170.892 232.652 170.95 232.741 171.048C232.83 171.147 232.877 171.278 232.871 171.412C232.871 171.548 232.816 171.675 232.721 171.767C232.625 171.86 232.502 171.909 232.373 171.905V171.902Z" fill="#131F2D"/>
<path d="M229.317 180.446C229.233 180.445 229.152 180.419 229.08 180.373L224.38 177.461C224.326 177.428 224.279 177.383 224.241 177.33C224.202 177.276 224.175 177.216 224.159 177.151C224.143 177.087 224.139 177.02 224.148 176.953C224.157 176.888 224.178 176.824 224.21 176.767C224.242 176.709 224.284 176.659 224.335 176.619C224.385 176.579 224.443 176.55 224.504 176.533C224.565 176.516 224.629 176.512 224.691 176.522C224.754 176.531 224.815 176.553 224.869 176.587L229.561 179.494C229.659 179.545 229.737 179.63 229.783 179.735C229.829 179.84 229.836 179.958 229.809 180.07C229.782 180.181 229.718 180.279 229.63 180.347C229.541 180.414 229.433 180.447 229.324 180.441L229.317 180.446Z" fill="#131F2D"/>
<path d="M227.233 168.996C227.233 175.595 223.081 180.994 217.865 181.318C217.695 181.328 217.524 181.333 217.353 181.333C211.9 181.333 207.474 175.809 207.474 168.996C207.451 166.251 208.208 163.563 209.648 161.276C211.457 158.459 214.235 156.654 217.353 156.654C218.206 156.656 219.054 156.792 219.869 157.059C222.003 157.804 223.832 159.291 225.059 161.276C226.498 163.563 227.255 166.251 227.233 168.996Z" fill="#657285"/>
<path d="M227.233 168.995C227.233 175.595 223.081 180.994 217.865 181.318C217.191 179.28 216.708 177.177 216.424 175.039C215.826 170.605 216.08 166.4 216.995 162.981C217.643 160.546 218.627 158.507 219.868 157.059C222.002 157.804 223.832 159.291 225.059 161.276C226.498 163.563 227.255 166.251 227.233 168.995Z" fill="#657285"/>
<path d="M217.353 165.901C221.609 165.901 225.059 163.831 225.059 161.279C225.059 158.726 221.609 156.657 217.353 156.657C213.097 156.657 209.648 158.726 209.648 161.279C209.648 163.831 213.097 165.901 217.353 165.901Z" fill="#131F2D"/>
<path d="M215.191 158.259C215.065 158.259 214.945 158.207 214.856 158.113C214.767 158.019 214.717 157.892 214.717 157.76C214.627 153.897 211.248 152.332 211.213 152.317C211.095 152.265 211.002 152.164 210.953 152.039C210.906 151.914 210.907 151.773 210.958 151.649C211.008 151.525 211.103 151.426 211.222 151.376C211.341 151.326 211.474 151.327 211.592 151.38C211.755 151.455 215.577 153.225 215.68 157.735C215.682 157.801 215.671 157.869 215.649 157.932C215.626 157.995 215.592 158.053 215.547 158.101C215.503 158.15 215.45 158.188 215.391 158.215C215.332 158.24 215.269 158.254 215.205 158.254L215.191 158.259Z" fill="#131F2D"/>
<path d="M219.179 159.567C219.058 159.567 218.942 159.519 218.854 159.432C218.766 159.345 218.713 159.226 218.704 159.099C218.295 153.655 221.815 151.501 221.964 151.411C222.076 151.344 222.208 151.327 222.331 151.363C222.454 151.399 222.558 151.485 222.621 151.603C222.685 151.72 222.7 151.859 222.666 151.989C222.632 152.119 222.55 152.229 222.439 152.295C222.306 152.376 219.307 154.248 219.665 159.019C219.671 159.086 219.664 159.153 219.645 159.216C219.626 159.28 219.594 159.339 219.553 159.39C219.512 159.441 219.462 159.482 219.405 159.512C219.349 159.542 219.287 159.56 219.224 159.564L219.179 159.567Z" fill="#131F2D"/>
<g opacity="0.4">
<path d="M246.358 200.418C262.028 183.893 262.028 157.1 246.358 140.574C230.682 124.049 205.269 124.049 189.594 140.574C173.919 157.1 173.919 183.893 189.593 200.418C205.269 216.944 230.682 216.944 246.358 200.418Z" fill="#00A3FE"/>
</g>
<path d="M263.603 206.56C263.603 206.56 256.512 206.722 254.568 203.445C252.618 200.168 255.918 197.316 255.918 197.316L266.474 203.332L263.603 206.56Z" fill="#FF7955"/>
<path d="M252.55 189.421L249.461 194.676L327.755 245.795L330.844 240.54L252.55 189.421Z" fill="#131F2D"/>
<path d="M331.601 242.717L329.923 245.571C329.603 246.116 329.085 246.505 328.498 246.652C327.905 246.798 327.284 246.691 326.766 246.354L285.921 219.682C285.403 219.345 285.035 218.804 284.898 218.18C284.755 217.556 284.858 216.899 285.178 216.353L286.856 213.499C287.176 212.954 287.687 212.565 288.281 212.419C288.874 212.272 289.494 212.379 290.013 212.717L330.857 239.387C331.376 239.725 331.744 240.266 331.88 240.89C332.024 241.514 331.921 242.172 331.601 242.717Z" fill="#131F2D"/>
<path d="M182.254 147.169C177.878 154.617 175.695 163.267 175.982 172.023C176.268 180.78 179.011 189.25 183.864 196.364C188.716 203.476 195.46 208.913 203.243 211.985C211.026 215.057 219.499 215.626 227.589 213.622C235.68 211.618 243.024 207.129 248.697 200.724C254.364 194.318 258.107 186.284 259.444 177.637C260.787 168.99 259.662 160.118 256.218 152.143C252.775 144.169 247.17 137.45 240.105 132.835C235.414 129.771 230.198 127.712 224.749 126.775C219.304 125.837 213.736 126.039 208.364 127.37C202.992 128.701 197.921 131.135 193.441 134.532C188.961 137.929 185.16 142.222 182.254 147.169ZM250.566 191.777C246.57 198.572 240.753 203.967 233.853 207.279C226.954 210.591 219.277 211.67 211.794 210.382C204.311 209.094 197.359 205.494 191.816 200.04C186.273 194.586 182.389 187.521 180.654 179.739C178.92 171.958 179.413 163.809 182.071 156.323C184.73 148.836 189.434 142.35 195.589 137.682C201.745 133.014 209.075 130.377 216.653 130.101C224.23 129.826 231.711 131.926 238.162 136.135C242.437 138.93 246.154 142.586 249.093 146.894C252.038 151.203 254.139 156.081 255.291 161.247C256.443 166.415 256.621 171.77 255.809 177.008C254.998 182.247 253.211 187.265 250.566 191.777Z" fill="#131F2D"/>
<path d="M326.984 216.006C325.089 201.036 309.167 192.579 309.167 192.579C309.167 192.579 310.517 225.942 313.238 224.957C317.895 223.272 324.277 223.237 326.984 216.006Z" fill="#00A3FE"/>
<path d="M295.87 300.156C295.87 300.156 295.747 302.656 294.145 303.326C292.542 303.995 287.933 304.493 289.61 306.153C290.572 307.107 295.229 306.652 296.538 306.68C297.847 306.707 299.061 307.365 300.064 306.455C301.161 305.455 300.22 300.283 300.22 300.283C300.22 300.283 299.068 300.881 298.052 300.823C296.593 300.74 295.87 300.156 295.87 300.156Z" fill="#131F2D"/>
<path d="M284.373 236.985C284.68 242.187 285.26 248.938 286.33 257.197C288.369 272.945 290.844 288.815 292.065 296.427C292.256 297.727 292.856 298.923 293.77 299.82C294.683 300.717 295.856 301.264 297.097 301.373L298.454 301.471C301.175 301.665 303.453 299.221 303.33 296.237L301.195 244.916L300.991 236.753C300.991 236.753 283.869 228.454 284.373 236.985Z" fill="#364154"/>
<path d="M310.885 300.591C310.885 300.591 310.762 303.09 309.16 303.757C307.557 304.425 302.948 304.925 304.625 306.587C305.587 307.539 310.237 307.087 311.553 307.115C312.863 307.142 314.076 307.8 315.072 306.887C316.17 305.888 315.229 300.716 315.229 300.716C315.229 300.716 314.083 301.313 313.067 301.256C311.601 301.173 310.885 300.591 310.885 300.591Z" fill="#131F2D"/>
<path d="M299.116 224.522C299.116 224.522 298.516 235.83 301.339 257.635C303.384 273.383 305.86 289.253 307.08 296.864C307.271 298.165 307.871 299.361 308.778 300.258C309.692 301.156 310.865 301.703 312.112 301.811L313.469 301.908C316.19 302.103 318.468 299.659 318.338 296.674L316.204 245.354L315.788 228.471L299.116 224.522Z" fill="#364154"/>
<path d="M302.014 262.074L301.809 262.044C301.809 261.952 302.975 252.683 303.848 249.356C304.721 246.029 308.778 243.107 308.826 243.069L308.942 243.252C308.908 243.279 304.912 246.134 304.053 249.413C303.193 252.693 302.014 261.981 302.014 262.074Z" fill="#131F2D"/>
<path d="M302.061 189.763L301.011 186.38L300.704 185.395L298.897 179.604L298.659 185.353L298.516 188.813L298.475 189.907C298.441 190.657 297.984 190.805 297.431 191.452C297.206 191.702 295.774 193.299 297.404 194.014C299.436 194.909 303.234 193.557 304.68 191.784C304.666 191.792 302.402 190.857 302.061 189.763Z" fill="#FF7955"/>
<path d="M304.209 182.761C304.823 179.391 303.043 176.2 300.234 175.634C297.431 175.068 294.663 177.342 294.049 180.713C293.442 184.084 295.215 187.275 298.025 187.841C300.827 188.407 303.596 186.132 304.209 182.761Z" fill="#FF7955"/>
<path d="M296.259 179.604C293.299 179.714 291.86 178.016 291.826 176.445C291.785 174.427 293.061 172.642 294.547 173.392C296.034 174.142 295.399 172.303 296.825 172.108C299.498 171.743 300.002 173.632 302.184 173.725C305.069 173.844 308.348 178.622 305.941 182.109C305.941 182.109 298.597 179.516 296.259 179.604Z" fill="#131F2D"/>
<path d="M293.62 177.569C293.62 177.569 296.784 180.596 296.368 182.301C295.952 184.006 296.054 184.671 297.902 185.58C299.75 186.49 298.12 187.963 300.582 188.08C303.043 188.197 306.057 185.295 306.057 180.541C306.044 178.936 305.505 177.386 304.523 176.157L293.62 177.569Z" fill="#131F2D"/>
<path d="M294.772 182.226C294.929 181.985 295.174 181.816 295.447 181.753C295.72 181.69 295.999 181.737 296.245 181.886C296.354 181.969 296.443 182.075 296.511 182.197C296.579 182.319 296.627 182.455 296.64 182.596C296.661 182.737 296.647 182.879 296.606 183.015C296.572 183.151 296.504 183.277 296.415 183.386C296.259 183.627 296.013 183.795 295.74 183.858C295.468 183.921 295.188 183.873 294.943 183.723C294.833 183.641 294.745 183.535 294.677 183.413C294.608 183.291 294.561 183.156 294.547 183.015C294.527 182.874 294.54 182.731 294.581 182.595C294.615 182.459 294.683 182.334 294.772 182.226Z" fill="#FFB27D"/>
<path d="M307.128 183.421C307.114 183.42 307.094 183.413 307.08 183.403C307.066 183.391 307.06 183.376 307.053 183.358C306.923 182.937 306.657 182.581 306.289 182.358C306.282 182.354 306.276 182.347 306.269 182.34C306.262 182.332 306.262 182.322 306.255 182.312C306.255 182.302 306.255 182.292 306.255 182.282C306.255 182.272 306.255 182.262 306.262 182.253C306.269 182.245 306.276 182.236 306.282 182.229C306.289 182.223 306.296 182.218 306.31 182.215C306.316 182.212 306.323 182.211 306.337 182.212C306.344 182.213 306.357 182.216 306.364 182.221C306.766 182.467 307.066 182.864 307.203 183.333C307.203 183.344 307.203 183.354 307.203 183.364C307.203 183.374 307.196 183.384 307.189 183.392C307.189 183.402 307.182 183.409 307.169 183.416C307.162 183.421 307.155 183.426 307.148 183.428L307.128 183.421Z" fill="#131F2D"/>
<path d="M306.33 181.993C306.31 181.993 306.289 181.986 306.276 181.973C306.262 181.959 306.255 181.94 306.255 181.921C306.255 181.911 306.255 181.901 306.255 181.89C306.262 181.881 306.262 181.872 306.269 181.865C306.276 181.857 306.289 181.851 306.296 181.846C306.303 181.842 306.31 181.839 306.323 181.839C306.323 181.839 307.128 181.781 307.244 181.166C307.251 181.146 307.264 181.128 307.278 181.116C307.292 181.105 307.312 181.1 307.332 181.103C307.353 181.107 307.367 181.12 307.38 181.137C307.394 181.154 307.394 181.175 307.394 181.196C307.251 181.929 306.371 181.99 306.33 181.993Z" fill="#131F2D"/>
<path d="M294.997 173.272C294.943 173.272 294.888 173.264 294.84 173.247C294.622 173.176 294.417 173.068 294.233 172.927C294.063 172.778 293.858 172.678 293.64 172.638C293.429 172.598 293.204 172.621 292.999 172.702C292.986 172.706 292.979 172.706 292.972 172.706C292.958 172.704 292.951 172.701 292.938 172.696C292.931 172.692 292.924 172.685 292.917 172.677C292.91 172.669 292.911 172.66 292.904 172.65C292.904 172.64 292.904 172.629 292.904 172.619C292.904 172.609 292.904 172.599 292.911 172.59C292.917 172.581 292.924 172.573 292.931 172.567C292.938 172.56 292.945 172.555 292.958 172.552C293.183 172.465 293.429 172.443 293.667 172.487C293.906 172.531 294.124 172.639 294.308 172.802C294.486 172.934 294.677 173.035 294.881 173.102C294.929 173.12 294.984 173.126 295.038 173.117C295.093 173.109 295.147 173.088 295.195 173.055C295.515 172.822 295.597 172.055 295.597 172.055C295.597 172.035 295.611 172.016 295.624 172.003C295.638 171.99 295.659 171.984 295.679 171.985C295.686 171.986 295.699 171.989 295.706 171.994C295.713 171.999 295.72 172.005 295.727 172.014C295.733 172.022 295.74 172.031 295.74 172.041C295.747 172.051 295.747 172.062 295.74 172.072C295.74 172.105 295.659 172.907 295.27 173.182C295.188 173.241 295.093 173.273 294.997 173.272Z" fill="#131F2D"/>
<path d="M301.959 173.474C301.264 173.442 300.595 173.164 300.064 172.685C300.057 172.678 300.05 172.67 300.043 172.661C300.036 172.652 300.036 172.641 300.029 172.63C300.029 172.619 300.029 172.609 300.036 172.598C300.036 172.588 300.043 172.578 300.05 172.57C300.057 172.562 300.064 172.555 300.077 172.551C300.084 172.547 300.098 172.544 300.104 172.544C300.118 172.544 300.125 172.546 300.139 172.551C300.145 172.555 300.152 172.562 300.159 172.57C300.159 172.57 301.141 173.477 302.273 173.294C302.293 173.292 302.314 173.297 302.327 173.309C302.348 173.321 302.355 173.34 302.362 173.36C302.362 173.38 302.355 173.401 302.348 173.417C302.334 173.435 302.314 173.446 302.293 173.45C302.184 173.466 302.075 173.475 301.959 173.474Z" fill="#131F2D"/>
<path d="M295.563 183.938C295.495 183.94 295.427 183.931 295.359 183.911C295.352 183.91 295.352 183.908 295.345 183.905C295.338 183.902 295.338 183.898 295.331 183.893C295.331 183.889 295.331 183.884 295.331 183.878C295.324 183.872 295.324 183.867 295.331 183.862C295.331 183.857 295.331 183.852 295.338 183.847C295.338 183.844 295.345 183.84 295.352 183.839C295.352 183.837 295.359 183.836 295.365 183.836C295.372 183.837 295.379 183.838 295.379 183.841C295.406 183.841 296.047 184.053 296.504 183.154C296.504 183.148 296.511 183.145 296.511 183.141C296.518 183.138 296.518 183.136 296.525 183.135C296.531 183.133 296.531 183.133 296.538 183.133C296.545 183.134 296.545 183.136 296.552 183.138C296.559 183.143 296.566 183.151 296.566 183.16C296.572 183.169 296.572 183.179 296.566 183.188C296.238 183.831 295.815 183.938 295.563 183.938Z" fill="#131F2D"/>
<path d="M284.373 236.985C284.373 236.985 305.846 235.735 316.033 238.357L316.19 235.248L301.898 230.736L290.36 231.039L286.821 231.848L284.319 235.985L284.373 236.985Z" fill="#131F2D"/>
<path d="M314.131 199.114C314.131 199.114 312.235 190.415 300.677 190.415C280.527 190.415 286.18 208.005 284.319 235.973C284.319 235.973 297.309 232.958 316.101 236.972C316.101 236.972 317.936 221.827 315.57 209.024C314.942 205.64 315.051 202.053 314.131 199.114Z" fill="#00A3FE"/>
<path d="M298.359 190.415C298.359 190.415 291.895 190.515 287.087 195.371C282.287 200.228 276.095 206.915 274.779 210.762C273.163 215.511 276.143 220.26 279.921 220.355C283.698 220.45 287.087 217.523 287.087 217.523L298.359 190.415Z" fill="#00A3FE"/>
<path d="M316.715 230.146H316.572C317.131 219.175 315.317 207.944 315.297 207.832L315.44 207.807C315.447 207.912 317.267 219.161 316.715 230.146Z" fill="#131F2D"/>
<path d="M284.851 219.1L284.776 218.973C288.574 216.573 293.517 210.257 293.565 210.192L293.674 210.289C293.627 210.352 288.669 216.691 284.851 219.1Z" fill="#131F2D"/>
<path d="M258.475 207.812C258.428 210.914 273 222.252 281.741 220.358C291.035 218.358 279.566 207.445 279.566 207.445L262.437 203.288C262.437 203.288 258.523 204.67 258.475 207.812Z" fill="#00A3FE"/>
<path d="M262.437 203.288C262.485 202.927 262.451 202.559 262.328 202.216C262.212 201.873 262.014 201.566 261.762 201.321C260.882 200.503 259.969 196.776 259.389 197.711C258.816 198.646 259.348 201.62 258.475 201.941C257.603 202.26 262.437 203.288 262.437 203.288Z" fill="#FF7955"/>
<path d="M268.847 137H267.988C267.872 137 267.763 137.047 267.688 137.13C267.606 137.214 267.565 137.327 267.565 137.445V141.444C267.565 141.563 267.517 141.677 267.435 141.761C267.36 141.844 267.251 141.892 267.135 141.892H266.835C266.719 141.891 266.617 141.844 266.535 141.76C266.46 141.676 266.412 141.562 266.412 141.444V137.445C266.412 137.327 266.365 137.214 266.29 137.13C266.208 137.047 266.099 137 265.99 137H265.151C265.035 137 264.926 136.953 264.851 136.869C264.769 136.785 264.721 136.671 264.721 136.552V136.465C264.721 136.347 264.769 136.233 264.851 136.149C264.926 136.064 265.035 136.018 265.151 136.018H268.847C268.963 136.018 269.065 136.064 269.147 136.149C269.229 136.233 269.27 136.347 269.27 136.465V136.552C269.27 136.671 269.229 136.785 269.147 136.869C269.065 136.953 268.963 137 268.847 137Z" fill="#00A3FE"/>
<path d="M272.85 139.342H271.486C271.377 139.342 271.268 139.389 271.193 139.473C271.111 139.556 271.07 139.669 271.07 139.787V140.47C271.07 140.588 271.111 140.701 271.193 140.785C271.268 140.869 271.377 140.917 271.486 140.917H273.231C273.286 140.917 273.347 140.929 273.395 140.951C273.45 140.974 273.49 141.007 273.531 141.048C273.572 141.09 273.606 141.139 273.627 141.194C273.647 141.248 273.654 141.306 273.654 141.364V141.444C273.654 141.503 273.647 141.562 273.627 141.615C273.606 141.669 273.572 141.719 273.531 141.761C273.49 141.803 273.45 141.835 273.395 141.858C273.347 141.88 273.286 141.892 273.231 141.892H270.34C270.231 141.892 270.122 141.845 270.04 141.761C269.958 141.677 269.917 141.563 269.917 141.444V136.445C269.917 136.326 269.958 136.213 270.04 136.129C270.122 136.045 270.231 135.998 270.34 135.998H273.225C273.34 135.998 273.443 136.046 273.525 136.13C273.606 136.213 273.647 136.327 273.647 136.445V136.533C273.647 136.651 273.606 136.764 273.525 136.848C273.443 136.932 273.34 136.979 273.225 136.98H271.486C271.377 136.98 271.268 137.027 271.193 137.11C271.111 137.194 271.07 137.307 271.07 137.425V137.925C271.07 138.043 271.111 138.157 271.193 138.241C271.268 138.324 271.377 138.372 271.486 138.373H272.85C272.959 138.373 273.068 138.419 273.15 138.503C273.231 138.586 273.272 138.699 273.272 138.817V138.875C273.279 138.935 273.265 138.996 273.245 139.052C273.225 139.109 273.197 139.161 273.156 139.205C273.115 139.248 273.068 139.283 273.013 139.307C272.965 139.33 272.904 139.343 272.85 139.342Z" fill="#00A3FE"/>
<path d="M277.234 140.347C277.234 140.253 277.22 140.159 277.193 140.07C277.159 139.98 277.105 139.901 277.029 139.842C276.927 139.759 276.811 139.69 276.695 139.637C276.518 139.554 276.334 139.482 276.143 139.422C275.904 139.34 275.666 139.243 275.434 139.132C275.223 139.033 275.018 138.904 274.841 138.75C274.677 138.612 274.541 138.442 274.438 138.249C274.336 138.041 274.288 137.812 274.288 137.579C274.288 137.346 274.336 137.116 274.438 136.907C274.541 136.702 274.684 136.524 274.861 136.388C275.059 136.237 275.277 136.124 275.509 136.052C275.782 135.972 276.061 135.933 276.341 135.935C276.627 135.931 276.914 135.977 277.186 136.07C277.425 136.151 277.643 136.279 277.834 136.447C278.011 136.605 278.148 136.801 278.243 137.022C278.271 137.071 278.284 137.118 278.305 137.165C278.325 137.232 278.332 137.304 278.318 137.374C278.311 137.443 278.284 137.51 278.243 137.567C278.202 137.625 278.155 137.671 278.093 137.703C278.032 137.736 277.964 137.752 277.902 137.752H277.589C277.5 137.751 277.418 137.721 277.343 137.666C277.268 137.61 277.214 137.532 277.186 137.443C277.186 137.443 277.186 137.42 277.186 137.41C277.152 137.307 277.091 137.214 277.016 137.138C276.934 137.059 276.839 136.999 276.729 136.963C276.6 136.917 276.464 136.896 276.32 136.9C276.191 136.898 276.054 136.915 275.932 136.953C275.829 136.983 275.734 137.032 275.652 137.097C275.584 137.156 275.529 137.231 275.488 137.317C275.454 137.4 275.434 137.491 275.434 137.582C275.434 137.685 275.461 137.785 275.509 137.873C275.557 137.961 275.632 138.033 275.713 138.083C275.973 138.244 276.252 138.368 276.539 138.447C276.818 138.535 277.084 138.647 277.343 138.78C277.555 138.886 277.752 139.025 277.923 139.192C278.073 139.338 278.189 139.514 278.277 139.71C278.359 139.916 278.393 140.137 278.393 140.36C278.4 140.599 278.346 140.835 278.25 141.049C278.155 141.248 278.011 141.419 277.841 141.549C277.65 141.696 277.432 141.803 277.2 141.867C276.934 141.945 276.648 141.983 276.368 141.979C276.184 141.979 276 141.962 275.816 141.929C275.638 141.896 275.461 141.844 275.291 141.772C275.12 141.708 274.963 141.624 274.813 141.522C274.677 141.418 274.547 141.294 274.438 141.152C274.336 141.004 274.247 140.84 274.193 140.664V140.637C274.172 140.57 274.166 140.499 274.179 140.43C274.186 140.361 274.213 140.296 274.254 140.239C274.295 140.183 274.35 140.138 274.404 140.106C274.466 140.075 274.534 140.059 274.595 140.06H274.895C274.984 140.06 275.072 140.092 275.147 140.151C275.222 140.21 275.277 140.293 275.304 140.387C275.311 140.429 275.325 140.472 275.345 140.512C275.393 140.63 275.468 140.735 275.563 140.814C275.673 140.894 275.788 140.951 275.918 140.982C276.061 141.018 276.211 141.036 276.368 141.035C276.498 141.036 276.627 141.02 276.757 140.984C276.852 140.956 276.941 140.909 277.023 140.845C277.098 140.789 277.152 140.716 277.186 140.632C277.22 140.542 277.241 140.445 277.234 140.347Z" fill="#00A3FE"/>
<path d="M282.941 137H282.082C281.966 137 281.857 137.047 281.782 137.13C281.7 137.214 281.659 137.327 281.659 137.445V141.444C281.659 141.563 281.612 141.677 281.53 141.761C281.455 141.845 281.346 141.892 281.23 141.892H280.93C280.821 141.891 280.712 141.844 280.63 141.76C280.555 141.676 280.507 141.563 280.507 141.444V137.445C280.507 137.327 280.459 137.214 280.384 137.13C280.302 137.047 280.193 137 280.084 137H279.252C279.136 136.999 279.034 136.952 278.952 136.868C278.871 136.784 278.83 136.671 278.83 136.552V136.465C278.83 136.405 278.836 136.345 278.857 136.289C278.877 136.233 278.905 136.182 278.946 136.139C278.986 136.095 279.034 136.06 279.089 136.036C279.137 136.013 279.191 136 279.252 136H282.948C283.064 136 283.173 136.047 283.248 136.131C283.33 136.215 283.371 136.329 283.371 136.447V136.535C283.378 136.596 283.364 136.657 283.344 136.714C283.323 136.77 283.296 136.822 283.255 136.865C283.214 136.909 283.166 136.943 283.112 136.967C283.057 136.99 283.003 137.002 282.941 137Z" fill="#00A3FE"/>
<path d="M284.823 141.892H284.517C284.407 141.891 284.298 141.844 284.217 141.76C284.142 141.676 284.094 141.563 284.094 141.444V136.445C284.094 136.327 284.142 136.213 284.217 136.13C284.298 136.046 284.407 135.998 284.517 135.998H284.823C284.932 135.998 285.042 136.045 285.123 136.129C285.198 136.213 285.246 136.326 285.246 136.445V141.444C285.246 141.563 285.198 141.677 285.123 141.761C285.042 141.845 284.932 141.892 284.823 141.892Z" fill="#00A3FE"/>
<path d="M290.422 141.892H289.938C289.863 141.892 289.788 141.872 289.726 141.834C289.665 141.797 289.61 141.742 289.576 141.677L288.246 139.377C288.199 139.295 288.124 139.232 288.035 139.197C287.953 139.161 287.858 139.156 287.769 139.183C287.681 139.209 287.605 139.265 287.544 139.342C287.49 139.419 287.462 139.513 287.462 139.61V141.444C287.462 141.563 287.415 141.677 287.333 141.761C287.258 141.845 287.149 141.892 287.033 141.892H286.733C286.624 141.892 286.515 141.845 286.433 141.761C286.351 141.677 286.31 141.563 286.31 141.444V136.445C286.31 136.326 286.351 136.213 286.433 136.129C286.515 136.045 286.624 135.998 286.733 135.998H287.224C287.292 135.998 287.367 136.018 287.428 136.055C287.49 136.093 287.544 136.147 287.585 136.213L288.915 138.517C288.962 138.601 289.037 138.665 289.119 138.701C289.208 138.737 289.303 138.742 289.392 138.717C289.481 138.691 289.556 138.634 289.617 138.557C289.672 138.48 289.699 138.385 289.699 138.288V136.445C289.699 136.327 289.747 136.213 289.828 136.13C289.903 136.046 290.013 135.998 290.122 135.998H290.422C290.538 135.998 290.647 136.045 290.722 136.129C290.804 136.213 290.844 136.326 290.844 136.445V141.444C290.844 141.563 290.804 141.677 290.722 141.761C290.647 141.845 290.538 141.892 290.422 141.892Z" fill="#00A3FE"/>
<path d="M296.265 140.967C296.265 141.03 296.252 141.092 296.231 141.149C296.204 141.206 296.17 141.258 296.122 141.3C296.088 141.337 296.04 141.377 295.993 141.417C295.863 141.523 295.713 141.611 295.563 141.682C295.365 141.772 295.161 141.842 294.949 141.889C294.677 141.947 294.404 141.975 294.131 141.972C293.797 141.976 293.456 141.913 293.142 141.784C292.856 141.664 292.59 141.474 292.379 141.232C292.161 140.973 291.99 140.669 291.888 140.339C291.765 139.949 291.704 139.538 291.711 139.127V138.78C291.704 138.367 291.765 137.958 291.881 137.565C291.983 137.235 292.14 136.931 292.358 136.67C292.556 136.429 292.808 136.239 293.095 136.118C293.402 135.987 293.729 135.923 294.056 135.928C294.377 135.92 294.697 135.968 295.004 136.07C295.249 136.154 295.474 136.29 295.665 136.473C295.843 136.645 295.986 136.855 296.081 137.09C296.109 137.156 296.136 137.223 296.156 137.292C296.177 137.36 296.184 137.431 296.17 137.501C296.163 137.571 296.136 137.637 296.095 137.695C296.054 137.752 296.006 137.799 295.945 137.831C295.884 137.863 295.822 137.88 295.754 137.88H295.488C295.399 137.879 295.311 137.848 295.236 137.792C295.168 137.737 295.113 137.659 295.086 137.57L295.052 137.477C295.004 137.361 294.936 137.256 294.854 137.17C294.765 137.081 294.656 137.014 294.54 136.973C294.397 136.925 294.247 136.901 294.097 136.905C293.92 136.896 293.749 136.934 293.593 137.016C293.436 137.098 293.299 137.222 293.204 137.375C292.972 137.798 292.863 138.285 292.89 138.772V139.127C292.863 139.618 292.979 140.108 293.231 140.524C293.34 140.679 293.483 140.804 293.654 140.886C293.818 140.969 294.002 141.008 294.186 140.999C294.308 141.002 294.431 140.992 294.547 140.972C294.636 140.957 294.724 140.933 294.813 140.902C294.874 140.877 294.936 140.846 294.99 140.809C295.038 140.78 295.072 140.747 295.113 140.709V140.142C295.113 140.024 295.065 139.91 294.99 139.826C294.909 139.741 294.799 139.695 294.69 139.695H294.486C294.377 139.695 294.268 139.648 294.192 139.564C294.111 139.481 294.063 139.368 294.063 139.25C294.063 139.131 294.111 139.017 294.186 138.933C294.268 138.849 294.377 138.802 294.486 138.802H295.85C295.904 138.802 295.959 138.814 296.006 138.836C296.061 138.859 296.109 138.891 296.15 138.933C296.184 138.975 296.218 139.025 296.238 139.079C296.259 139.133 296.272 139.191 296.272 139.25L296.265 140.967Z" fill="#00A3FE"/>
</svg>
